<svg width="34" height="34" viewBox="0 0 34 34" fill="none" xmlns="http://www.w3.org/2000/svg">
<path d="M4 16C4 17.8385 4.36212 19.659 5.06569 21.3576C5.76925 23.0561 6.80049 24.5995 8.10051 25.8995C9.40053 27.1995 10.9439 28.2308 12.6424 28.9343C14.341 29.6379 16.1615 30 18 30" stroke="#F5F5F5" stroke-width="2" stroke-linejoin="round"/>
<path d="M4 16C4 14.3431 5.34315 13 7 13C8.65685 13 10 14.3431 10 16C10 17.6569 8.65685 19 7 19C5.34315 19 4 17.6569 4 16Z" fill="#F5F5F5" stroke="#F5F5F5" stroke-width="2" stroke-linejoin="round"/>
<path d="M15 27C15 25.3431 16.3431 24 18 24C19.6569 24 21 25.3431 21 27C21 28.6569 19.6569 30 18 30C16.3431 30 15 28.6569 15 27Z" fill="#F5F5F5" stroke="#F5F5F5" stroke-width="2" stroke-linejoin="round"/>
<path d="M6.90444 18.9504C7.6447 20.9086 8.81471 22.6759 10.3283 24.1222C11.842 25.5685 13.6607 26.6568 15.6506 27.3072" stroke="#F5F5F5" stroke-width="4" stroke-linejoin="round"/>
</svg>
