<svg width="49" height="29" viewBox="0 0 49 29" fill="none" xmlns="http://www.w3.org/2000/svg">
<path d="M24.5107 0.645508C27.0022 2.80917 30.04 6.13238 31.3232 10.1465C31.9883 12.2269 32.1815 14.4904 31.5869 16.8828C31.0089 19.2084 29.677 21.6838 27.2598 24.252C25.8649 23.7654 24.4074 22.9427 23.377 21.4023C22.7698 20.4947 22.2962 19.3139 22.082 17.7646C22.2834 18.2704 22.5123 18.7557 22.7627 19.2119C23.7195 20.9552 25.0573 22.3796 26.5195 22.7842C26.6968 22.8331 26.8865 22.7813 27.0137 22.6484C28.5784 21.0104 30.261 18.2724 30.4316 14.9736C30.6037 11.6457 29.2322 7.8385 24.8525 4.1084C24.6927 3.97226 24.4681 3.95201 24.2891 4.0498L24.2158 4.09863C21.6343 6.16977 16.486 11.5565 19.0498 19.6484C20.1924 23.2546 22.3263 25.4584 24.9932 26.6709C27.638 27.8733 30.7657 28.0823 33.8916 27.7979C35.9215 27.6131 38.0976 26.844 39.5879 25.6045C40.3364 24.9818 40.9314 24.2234 41.2285 23.3408C41.5287 22.4489 41.5121 21.4658 41.0928 20.4316C41.0784 20.3963 41.0599 20.363 41.0381 20.332L40.9629 20.2471L40.8369 20.1396C40.1801 19.6087 39.1568 19.1919 37.8369 19.2754C36.9156 19.3337 35.8658 19.6356 34.7031 20.291C35.3405 19.4996 36.2246 18.7152 37.4648 18.085C39.7009 16.9486 43.1488 16.2867 48.498 17.0576C48.4507 19.238 46.8681 22.2945 43.8457 24.7227C40.6644 27.2784 35.9517 29.0767 30.0039 28.3291C26.2284 27.8545 22.4126 25.6569 18.6191 23.7607C16.7449 22.8239 14.8793 21.9663 13.0713 21.4805C11.259 20.9935 9.46654 20.8696 7.75391 21.4424C7.71595 21.4551 7.68011 21.473 7.64648 21.4941L7.55371 21.5693L7.45215 21.6738C7.43004 21.6966 7.40991 21.7216 7.39258 21.748L7.34766 21.833C6.82986 23.0974 6.94694 24.6707 8.35742 26.0059C9.11884 26.7266 10.2448 27.3654 11.8242 27.8643C10.2265 27.7243 8.56058 27.3813 7.0127 26.6973C3.93705 25.338 1.2747 22.623 0.558594 17.3516C0.8583 17.3274 1.28259 17.2995 1.80469 17.2783C2.898 17.234 4.41697 17.2235 6.11816 17.3574C9.54115 17.6269 13.615 18.4758 16.4766 20.7314C16.6469 20.8657 16.8843 20.8747 17.0645 20.7539C17.2445 20.6332 17.326 20.4106 17.2666 20.2021C16.3904 17.132 16.018 13.9208 16.9756 10.625C17.9097 7.41028 20.1281 4.05445 24.5107 0.645508Z" fill="#A8C078"/>
<path d="M24.5107 0.645508C27.0022 2.80917 30.04 6.13238 31.3232 10.1465C31.9883 12.2269 32.1815 14.4904 31.5869 16.8828C31.0089 19.2084 29.677 21.6838 27.2598 24.252C25.8649 23.7654 24.4074 22.9427 23.377 21.4023C22.7698 20.4947 22.2962 19.3139 22.082 17.7646C22.2834 18.2704 22.5123 18.7557 22.7627 19.2119C23.7195 20.9552 25.0573 22.3796 26.5195 22.7842C26.6968 22.8331 26.8865 22.7813 27.0137 22.6484C28.5784 21.0104 30.261 18.2724 30.4316 14.9736C30.6037 11.6457 29.2322 7.8385 24.8525 4.1084C24.6927 3.97226 24.4681 3.95201 24.2891 4.0498L24.2158 4.09863C21.6343 6.16977 16.486 11.5565 19.0498 19.6484C20.1924 23.2546 22.3263 25.4584 24.9932 26.6709C27.638 27.8733 30.7657 28.0823 33.8916 27.7979C35.9215 27.6131 38.0976 26.844 39.5879 25.6045C40.3364 24.9818 40.9314 24.2234 41.2285 23.3408C41.5287 22.4489 41.5121 21.4658 41.0928 20.4316C41.0784 20.3963 41.0599 20.363 41.0381 20.332L40.9629 20.2471L40.8369 20.1396C40.1801 19.6087 39.1568 19.1919 37.8369 19.2754C36.9156 19.3337 35.8658 19.6356 34.7031 20.291C35.3405 19.4996 36.2246 18.7152 37.4648 18.085C39.7009 16.9486 43.1488 16.2867 48.498 17.0576C48.4507 19.238 46.8681 22.2945 43.8457 24.7227C40.6644 27.2784 35.9517 29.0767 30.0039 28.3291C26.2284 27.8545 22.4126 25.6569 18.6191 23.7607C16.7449 22.8239 14.8793 21.9663 13.0713 21.4805C11.259 20.9935 9.46654 20.8696 7.75391 21.4424C7.71595 21.4551 7.68011 21.473 7.64648 21.4941L7.55371 21.5693L7.45215 21.6738C7.43004 21.6966 7.40991 21.7216 7.39258 21.748L7.34766 21.833C6.82986 23.0974 6.94694 24.6707 8.35742 26.0059C9.11884 26.7266 10.2448 27.3654 11.8242 27.8643C10.2265 27.7243 8.56058 27.3813 7.0127 26.6973C3.93705 25.338 1.2747 22.623 0.558594 17.3516C0.8583 17.3274 1.28259 17.2995 1.80469 17.2783C2.898 17.234 4.41697 17.2235 6.11816 17.3574C9.54115 17.6269 13.615 18.4758 16.4766 20.7314C16.6469 20.8657 16.8843 20.8747 17.0645 20.7539C17.2445 20.6332 17.326 20.4106 17.2666 20.2021C16.3904 17.132 16.018 13.9208 16.9756 10.625C17.9097 7.41028 20.1281 4.05445 24.5107 0.645508Z" stroke="#C8DAA3" stroke-linejoin="round"/>
<path d="M24.5107 0.645508C27.0022 2.80917 30.04 6.13238 31.3232 10.1465C31.9883 12.2269 32.1815 14.4904 31.5869 16.8828C31.0089 19.2084 29.677 21.6838 27.2598 24.252C25.8649 23.7654 24.4074 22.9427 23.377 21.4023C22.7698 20.4947 22.2962 19.3139 22.082 17.7646C22.2834 18.2704 22.5123 18.7557 22.7627 19.2119C23.7195 20.9552 25.0573 22.3796 26.5195 22.7842C26.6968 22.8331 26.8865 22.7813 27.0137 22.6484C28.5784 21.0104 30.261 18.2724 30.4316 14.9736C30.6037 11.6457 29.2322 7.8385 24.8525 4.1084C24.6927 3.97226 24.4681 3.95201 24.2891 4.0498L24.2158 4.09863C21.6343 6.16977 16.486 11.5565 19.0498 19.6484C20.1924 23.2546 22.3263 25.4584 24.9932 26.6709C27.638 27.8733 30.7657 28.0823 33.8916 27.7979C35.9215 27.6131 38.0976 26.844 39.5879 25.6045C40.3364 24.9818 40.9314 24.2234 41.2285 23.3408C41.5287 22.4489 41.5121 21.4658 41.0928 20.4316C41.0784 20.3963 41.0599 20.363 41.0381 20.332L40.9629 20.2471L40.8369 20.1396C40.1801 19.6087 39.1568 19.1919 37.8369 19.2754C36.9156 19.3337 35.8658 19.6356 34.7031 20.291C35.3405 19.4996 36.2246 18.7152 37.4648 18.085C39.7009 16.9486 43.1488 16.2867 48.498 17.0576C48.4507 19.238 46.8681 22.2945 43.8457 24.7227C40.6644 27.2784 35.9517 29.0767 30.0039 28.3291C26.2284 27.8545 22.4126 25.6569 18.6191 23.7607C16.7449 22.8239 14.8793 21.9663 13.0713 21.4805C11.259 20.9935 9.46654 20.8696 7.75391 21.4424C7.71595 21.4551 7.68011 21.473 7.64648 21.4941L7.55371 21.5693L7.45215 21.6738C7.43004 21.6966 7.40991 21.7216 7.39258 21.748L7.34766 21.833C6.82986 23.0974 6.94694 24.6707 8.35742 26.0059C9.11884 26.7266 10.2448 27.3654 11.8242 27.8643C10.2265 27.7243 8.56058 27.3813 7.0127 26.6973C3.93705 25.338 1.2747 22.623 0.558594 17.3516C0.8583 17.3274 1.28259 17.2995 1.80469 17.2783C2.898 17.234 4.41697 17.2235 6.11816 17.3574C9.54115 17.6269 13.615 18.4758 16.4766 20.7314C16.6469 20.8657 16.8843 20.8747 17.0645 20.7539C17.2445 20.6332 17.326 20.4106 17.2666 20.2021C16.3904 17.132 16.018 13.9208 16.9756 10.625C17.9097 7.41028 20.1281 4.05445 24.5107 0.645508Z" stroke="#B2C58A" stroke-linejoin="round"/>
</svg>
