<svg width="20" height="20" viewBox="0 0 20 20" fill="none" xmlns="http://www.w3.org/2000/svg">
<path d="M17.9335 3.57164C16.5934 1.8252 14.7145 0.569749 12.5882 0L12.0706 1.93185C13.7716 2.38765 15.2748 3.39201 16.3468 4.78917C17.2145 5.91996 17.7606 7.25692 17.9373 8.65926L0 8.65926V10.6593L17.9373 10.6593C17.7606 12.0616 17.2145 13.3986 16.3468 14.5293C15.2748 15.9265 13.7716 16.9309 12.0706 17.3867L12.5882 19.3185C14.7145 18.7488 16.5934 17.4933 17.9335 15.7469C19.2736 14.0004 20 11.8606 20 9.65926C20 7.45792 19.2736 5.31809 17.9335 3.57164Z" fill="#4F3422"/>
</svg>
