<svg width="37" height="36" viewBox="0 0 37 36" fill="none" xmlns="http://www.w3.org/2000/svg">
<path d="M6.875 11.25C6.875 5.0368 12.0051 0 18.3333 0C24.6616 0 29.7917 5.0368 29.7917 11.25C29.7917 14.5824 28.3159 17.5764 25.9711 19.6364C27.9507 20.5271 29.7546 21.7578 31.297 23.2721C32.9994 24.9435 34.3498 26.9278 35.2711 29.1117C36.1925 31.2956 36.6667 33.6362 36.6667 36H0C0 33.6362 0.474205 31.2956 1.39554 29.1117C2.31688 26.9278 3.6673 24.9435 5.36971 23.2721C6.91207 21.7578 8.71596 20.5271 10.6956 19.6364C8.35075 17.5764 6.875 14.5824 6.875 11.25Z" fill="#4F3422"/>
</svg>
