<svg width="31" height="27" viewBox="0 0 31 27" fill="none" xmlns="http://www.w3.org/2000/svg">
<path d="M24.3589 4.73419L24.1137 4.51952C22.6053 3.1988 20.3522 3.1988 18.8438 4.51953L5.15529 16.5047C4.28782 17.2643 3.79028 18.3612 3.79028 19.5142V23.2312H8.60391C9.57325 23.2312 10.5096 22.8792 11.2389 22.2406L24.3589 10.7531C26.1789 9.15956 26.1789 6.32774 24.3589 4.73419Z" fill="#4F3422" stroke="#4F3422" stroke-width="2" stroke-linejoin="round"/>
<path d="M24.2203 4.61268C22.651 3.23863 20.3069 3.23863 18.7375 4.61268C16.844 6.27057 16.844 9.21673 18.7375 10.8746C20.3069 12.2487 22.651 12.2487 24.2203 10.8746C26.1138 9.21673 26.1138 6.27057 24.2203 4.61268Z" stroke="white" stroke-width="2" stroke-linejoin="round"/>
</svg>
