<svg width="43" height="41" viewBox="0 0 43 41" fill="none" xmlns="http://www.w3.org/2000/svg">
<ellipse cx="21.5" cy="20.5" rx="16.125" ry="15.375" stroke="#F2FFD4" stroke-opacity="0.2" stroke-linejoin="round"/>
<path d="M21.5 14.3519C23.5025 14.3519 23.74 14.3594 24.5312 14.3956C26.5638 14.4881 27.5131 15.4525 27.6056 17.47C27.6419 18.2606 27.6487 18.4981 27.6487 20.5006C27.6487 22.5037 27.6412 22.7406 27.6056 23.5312C27.5125 25.5469 26.5656 26.5131 24.5312 26.6056C23.74 26.6419 23.5037 26.6494 21.5 26.6494C19.4975 26.6494 19.26 26.6419 18.4694 26.6056C16.4319 26.5125 15.4875 25.5438 15.395 23.5306C15.3588 22.74 15.3512 22.5031 15.3512 20.5C15.3512 18.4975 15.3594 18.2606 15.395 17.4694C15.4881 15.4525 16.435 14.4875 18.4694 14.395C19.2606 14.3594 19.4975 14.3519 21.5 14.3519ZM21.5 13C19.4631 13 19.2081 13.0087 18.4081 13.045C15.6844 13.17 14.1706 14.6813 14.0456 17.4075C14.0087 18.2081 14 18.4631 14 20.5C14 22.5369 14.0087 22.7925 14.045 23.5925C14.17 26.3162 15.6813 27.83 18.4075 27.955C19.2081 27.9913 19.4631 28 21.5 28C23.5369 28 23.7925 27.9913 24.5925 27.955C27.3138 27.83 28.8313 26.3188 28.9544 23.5925C28.9913 22.7925 29 22.5369 29 20.5C29 18.4631 28.9913 18.2081 28.955 17.4081C28.8325 14.6869 27.3194 13.1706 24.5931 13.0456C23.7925 13.0087 23.5369 13 21.5 13ZM21.5 16.6487C19.3731 16.6487 17.6487 18.3731 17.6487 20.5C17.6487 22.6269 19.3731 24.3519 21.5 24.3519C23.6269 24.3519 25.3513 22.6275 25.3513 20.5C25.3513 18.3731 23.6269 16.6487 21.5 16.6487ZM21.5 23C20.1194 23 19 21.8813 19 20.5C19 19.1194 20.1194 18 21.5 18C22.8806 18 24 19.1194 24 20.5C24 21.8813 22.8806 23 21.5 23ZM25.5037 15.5969C25.0063 15.5969 24.6031 16 24.6031 16.4969C24.6031 16.9937 25.0063 17.3969 25.5037 17.3969C26.0006 17.3969 26.4031 16.9937 26.4031 16.4969C26.4031 16 26.0006 15.5969 25.5037 15.5969Z" fill="#B0ACAC"/>
</svg>
