<svg width="26" height="31" viewBox="0 0 26 31" fill="none" xmlns="http://www.w3.org/2000/svg">
<path d="M19 23.25V26C19 28.2091 17.2091 30 15 30H5C2.79086 30 1 28.2091 1 26V7C1 4.79086 2.79086 3 5 3H15C17.2091 3 19 4.79086 19 7V9.75" stroke="#FAF5F1" stroke-width="2" stroke-linejoin="round"/>
<path d="M15 4C15 4.52529 14.8836 5.04543 14.6575 5.53073C14.4313 6.01604 14.0998 6.45699 13.682 6.82843C13.2641 7.19986 12.768 7.4945 12.2221 7.69552C11.6761 7.89654 11.0909 8 10.5 8C9.90905 8 9.32389 7.89654 8.77792 7.69552C8.23196 7.4945 7.73588 7.19986 7.31802 6.82843C6.90016 6.45699 6.56869 6.01604 6.34254 5.53073C6.1164 5.04543 6 4.52529 6 4" stroke="#FAF5F1" stroke-width="2" stroke-linejoin="round"/>
<path d="M9 16.5C9.55966 17.1523 10.5363 19.3399 11.4488 20.7308C12.7559 22.7231 14.7502 19.7769 16.5 18.1595L25 10" stroke="#FAF5F1" stroke-width="2" stroke-linejoin="round"/>
</svg>
