<svg width="50" height="50" viewBox="0 0 50 50" fill="none" xmlns="http://www.w3.org/2000/svg">
<rect x="0.5" y="0.5" width="49" height="49" rx="24.5" stroke="white"/>
<path d="M25 17C22.8783 17 20.8434 17.8429 19.3431 19.3431C17.8429 20.8434 17 22.8783 17 25C17 27.1217 17.8429 29.1566 19.3431 30.6569C20.8434 32.1571 22.8783 33 25 33V35C22.3478 35 19.8043 33.9464 17.9289 32.0711C16.0536 30.1957 15 27.6522 15 25C15 22.3478 16.0536 19.8043 17.9289 17.9289C19.8043 16.0536 22.3478 15 25 15V17Z" fill="white"/>
<path d="M32.8284 24L21 24V26L32.8284 26C32.724 26.2953 32.5733 26.5744 32.3801 26.8263C31.978 27.3502 31.4144 27.7269 30.7765 27.8978L31.2941 29.8296C32.3573 29.5448 33.2967 28.917 33.9668 28.0438C34.6368 27.1706 35 26.1007 35 25C35 23.8993 34.6368 22.8294 33.9668 21.9562C33.2967 21.083 32.3573 20.4552 31.2941 20.1704L30.7765 22.1022C31.4144 22.2731 31.978 22.6498 32.3801 23.1737C32.5733 23.4256 32.724 23.7047 32.8284 24Z" fill="white"/>
<path d="M25 17C22.8783 17 20.8434 17.8429 19.3431 19.3431C17.8429 20.8434 17 22.8783 17 25C17 27.1217 17.8429 29.1566 19.3431 30.6569C20.8434 32.1571 22.8783 33 25 33V35C22.3478 35 19.8043 33.9464 17.9289 32.0711C16.0536 30.1957 15 27.6522 15 25C15 22.3478 16.0536 19.8043 17.9289 17.9289C19.8043 16.0536 22.3478 15 25 15V17Z" stroke="white"/>
<path d="M32.8284 24L21 24V26L32.8284 26C32.724 26.2953 32.5733 26.5744 32.3801 26.8263C31.978 27.3502 31.4144 27.7269 30.7765 27.8978L31.2941 29.8296C32.3573 29.5448 33.2967 28.917 33.9668 28.0438C34.6368 27.1706 35 26.1007 35 25C35 23.8993 34.6368 22.8294 33.9668 21.9562C33.2967 21.083 32.3573 20.4552 31.2941 20.1704L30.7765 22.1022C31.4144 22.2731 31.978 22.6498 32.3801 23.1737C32.5733 23.4256 32.724 23.7047 32.8284 24Z" stroke="white"/>
</svg>
