<svg width="40" height="40" viewBox="0 0 40 40" fill="none" xmlns="http://www.w3.org/2000/svg">
<path d="M8.33325 33.3334C8.33325 31.8013 8.63502 30.2842 9.22132 28.8688C9.80763 27.4533 10.667 26.1672 11.7503 25.0838C12.8337 24.0005 14.1198 23.1411 15.5353 22.5548C16.9507 21.9685 18.4678 21.6667 19.9999 21.6667C21.532 21.6667 23.0491 21.9685 24.4646 22.5548C25.88 23.1411 27.1662 24.0005 28.2495 25.0838C29.3329 26.1672 30.1922 27.4533 30.7785 28.8688C31.3648 30.2842 31.6666 31.8013 31.6666 33.3334" stroke="#FAF5F1" stroke-width="2" stroke-linejoin="round"/>
<rect x="13.3333" y="8.33325" width="13.3333" height="13.3333" rx="6.66667" stroke="#FAF5F1" stroke-width="2" stroke-linejoin="round"/>
<path d="M20 25V33" stroke="#FAF5F1" stroke-width="1.5" stroke-linejoin="round"/>
<path d="M24 29L16 29" stroke="#FAF5F1" stroke-width="1.5" stroke-linejoin="round"/>
</svg>
