<svg width="44" height="44" viewBox="0 0 44 44" fill="none" xmlns="http://www.w3.org/2000/svg">
<path d="M18.3333 22C18.3333 19.975 19.975 18.3333 22 18.3333C24.025 18.3333 25.6667 19.975 25.6667 22C25.6667 24.025 24.025 25.6667 22 25.6667C19.975 25.6667 18.3333 24.025 18.3333 22Z" fill="#677345"/>
<path fill-rule="evenodd" clip-rule="evenodd" d="M22.0008 5.5C19.9757 5.5 18.3341 7.14162 18.3341 9.16667C18.3341 10.6361 16.5572 11.3718 15.5181 10.3327C14.0862 8.90078 11.7646 8.90078 10.3327 10.3327C8.90077 11.7646 8.90077 14.0862 10.3327 15.5182C11.3716 16.557 10.6358 18.3333 9.16667 18.3333C7.14162 18.3333 5.5 19.975 5.5 22C5.5 24.025 7.14162 25.6667 9.16667 25.6667C10.6358 25.6667 11.3716 27.4429 10.3328 28.4818C8.90085 29.9137 8.90085 32.2353 10.3328 33.6672C11.7647 35.0991 14.0863 35.0991 15.5182 33.6672C16.5573 32.6282 18.3341 33.3639 18.3341 34.8333C18.3341 36.8584 19.9757 38.5 22.0008 38.5C24.0258 38.5 25.6675 36.8584 25.6675 34.8333C25.6675 33.3646 27.4432 32.6287 28.4818 33.6672C29.9137 35.0991 32.2353 35.0991 33.6672 33.6672C35.0991 32.2353 35.0991 29.9137 33.6672 28.4818C32.6284 27.4429 33.3642 25.6667 34.8333 25.6667C36.8584 25.6667 38.5 24.025 38.5 22C38.5 19.975 36.8584 18.3333 34.8333 18.3333C33.3642 18.3333 32.6284 16.557 33.6673 15.5181C35.0992 14.0862 35.0992 11.7646 33.6673 10.3327C32.2354 8.90077 29.9138 8.90077 28.4819 10.3327C27.4433 11.3713 25.6675 10.6354 25.6675 9.16667C25.6675 7.14162 24.0258 5.5 22.0008 5.5ZM22 14.6667C17.9499 14.6667 14.6667 17.9499 14.6667 22C14.6667 26.0501 17.9499 29.3333 22 29.3333C26.0501 29.3333 29.3333 26.0501 29.3333 22C29.3333 17.9499 26.0501 14.6667 22 14.6667Z" fill="#677345"/>
</svg>
