<svg width="33" height="30" viewBox="0 0 33 30" fill="none" xmlns="http://www.w3.org/2000/svg">
<path d="M9.93457 1.25C11.733 1.25029 13.4208 2.92636 13.4209 5.29395C13.4209 7.66162 11.733 9.3376 9.93457 9.33789C8.13596 9.33789 6.44727 7.66182 6.44727 5.29395C6.44735 2.92616 8.136 1.25 9.93457 1.25Z" stroke="#FAF5F1" stroke-width="2.5"/>
<path d="M7.56579 7.94116C5.98684 8.82351 1.25 12.3529 1.25 17.647" stroke="#FAF5F1" stroke-width="2.5"/>
<path d="M24.9342 8.82349C26.5132 9.70584 31.25 13.2353 31.25 18.5294" stroke="#FAF5F1" stroke-width="2.5"/>
<path d="M22.5654 1.25C20.767 1.25029 19.0792 2.92636 19.0791 5.29395C19.0791 7.66162 20.767 9.3376 22.5654 9.33789C24.364 9.33789 26.0527 7.66182 26.0527 5.29395C26.0527 2.92616 24.364 1.25 22.5654 1.25Z" stroke="#FAF5F1" stroke-width="2.5"/>
<path d="M16.251 11.8384C18.0494 11.8387 19.7372 13.5147 19.7373 15.8823C19.7373 18.25 18.0494 19.926 16.251 19.9263C14.4524 19.9263 12.7637 18.2502 12.7637 15.8823C12.7638 13.5145 14.4524 11.8384 16.251 11.8384Z" stroke="#FAF5F1" stroke-width="2.5"/>
<path d="M14.6713 19.4116C12.3028 21.1763 8.35547 24.7057 8.35547 29.9999" stroke="#FAF5F1" stroke-width="2.5"/>
<path d="M18.6188 19.4116C20.9872 21.1763 24.9346 24.7057 24.9346 29.9999" stroke="#FAF5F1" stroke-width="2.5"/>
</svg>
