<svg width="29" height="29" viewBox="0 0 29 29" fill="none" xmlns="http://www.w3.org/2000/svg">
<path d="M25.3751 16.9167C25.3751 16.1233 25.2188 15.3376 24.9152 14.6046C24.6116 13.8716 24.1665 13.2056 23.6055 12.6446C23.0445 12.0835 22.3785 11.6385 21.6455 11.3349C20.9125 11.0313 20.1268 10.875 19.3334 10.875" stroke="#6D523F" stroke-width="2" stroke-linejoin="round"/>
<rect x="16.9167" y="6.04175" width="4.83333" height="4.83333" rx="2.41667" stroke="#6D523F" stroke-width="2" stroke-linejoin="round"/>
<path d="M3.62492 16.9167C3.62492 16.1233 3.78119 15.3376 4.08481 14.6046C4.38844 13.8716 4.83346 13.2056 5.39448 12.6446C5.9555 12.0835 6.62153 11.6385 7.35454 11.3349C8.08755 11.0313 8.87318 10.875 9.66659 10.875" stroke="#6D523F" stroke-width="2" stroke-linejoin="round"/>
<rect width="4.83333" height="4.83333" rx="2.41667" transform="matrix(-1 0 0 1 12.0833 6.04175)" stroke="#6D523F" stroke-width="2" stroke-linejoin="round"/>
<path d="M8.45825 25.3749C8.45825 24.5815 8.61452 23.7959 8.91815 23.0629C9.22177 22.3299 9.6668 21.6638 10.2278 21.1028C10.7888 20.5418 11.4549 20.0968 12.1879 19.7931C12.9209 19.4895 13.7065 19.3333 14.4999 19.3333C15.2933 19.3333 16.079 19.4895 16.812 19.7931C17.545 20.0968 18.211 20.5418 18.772 21.1028C19.333 21.6638 19.7781 22.3299 20.0817 23.0629C20.3853 23.7959 20.5416 24.5815 20.5416 25.3749" stroke="#6D523F" stroke-width="2" stroke-linejoin="round"/>
<rect x="12.0833" y="13.2917" width="4.83333" height="4.83333" rx="2.41667" stroke="#6D523F" stroke-width="2" stroke-linejoin="round"/>
</svg>
