<svg width="31" height="30" viewBox="0 0 31 30" fill="none" xmlns="http://www.w3.org/2000/svg">
<path fill-rule="evenodd" clip-rule="evenodd" d="M16.7501 6.15824V4.84619H14.1732V6.15824C10.5169 6.73502 7.73084 9.72506 7.73084 13.327V20.5962H6.44238V23.0193H10.4714C10.6997 23.8504 11.1608 24.6172 11.8173 25.2345C12.7838 26.1433 14.0947 26.6539 15.4616 26.6539C16.8285 26.6539 18.1394 26.1433 19.1059 25.2345C19.7625 24.6172 20.2236 23.8504 20.4518 23.0193H24.4808V20.5962H23.1924V13.327C23.1924 9.72506 20.4064 6.73502 16.7501 6.15824ZM17.6933 23.0193C17.5817 23.2011 17.4444 23.3701 17.2838 23.5211C16.8005 23.9755 16.1451 24.2308 15.4616 24.2308C14.7782 24.2308 14.1227 23.9755 13.6395 23.5211C13.4788 23.3701 13.3416 23.2011 13.2299 23.0193L17.6933 23.0193Z" fill="#6D523F"/>
</svg>
