<svg width="67" height="39" viewBox="0 0 67 39" fill="none" xmlns="http://www.w3.org/2000/svg">
<path d="M22.6715 38.0105C15.5515 38.8593 1.72378 38.2745 0 22.7308C0 22.7308 14.8021 21.0331 22.9526 27.3524C20.5168 18.9581 20.7978 9.52619 33.5389 0C40.5652 5.84776 51.7135 18.8637 37.4736 33.3888C33.2578 32.0683 28.1052 28.6729 29.6041 17.6376C29.6041 23.1081 32.9768 29.0502 36.4431 29.9933C40.5652 25.749 45.2494 15.8455 33.5389 6.0364C30.0726 8.77164 23.3273 15.7512 26.6999 26.2206C29.7115 35.5692 37.8483 37.4687 46.2799 36.7141C51.6199 36.2363 57.6156 32.7286 55.5546 27.7297C54.0556 26.4092 50.4207 25.3906 45.2494 29.6161C46.842 25.9376 51.5262 19.9956 66.984 22.3535C67.4524 28.8615 57.5887 40.8234 40.9399 38.765C30.3169 37.4516 19.5035 26.6179 10.8195 29.4746L10.68 29.6161C9.46208 32.5399 11.1484 36.8786 22.6715 38.0105Z" fill="#D9D9D9"/>
<path d="M22.6715 38.0105C15.5515 38.8593 1.72378 38.2745 0 22.7308C0 22.7308 14.8021 21.0331 22.9526 27.3524C20.5168 18.9581 20.7978 9.52619 33.5389 0C40.5652 5.84776 51.7135 18.8637 37.4736 33.3888C33.2578 32.0683 28.1052 28.6729 29.6041 17.6376C29.6041 23.1081 32.9768 29.0502 36.4431 29.9933C40.5652 25.749 45.2494 15.8455 33.5389 6.0364C30.0726 8.77164 23.3273 15.7512 26.6999 26.2206C29.7115 35.5692 37.8483 37.4687 46.2799 36.7141C51.6199 36.2363 57.6156 32.7286 55.5546 27.7297C54.0556 26.4092 50.4207 25.3906 45.2494 29.6161C46.842 25.9376 51.5262 19.9956 66.984 22.3535C67.4524 28.8615 57.5887 40.8234 40.9399 38.765C30.3169 37.4516 19.5035 26.6179 10.8195 29.4746L10.68 29.6161C9.46208 32.5399 11.1484 36.8786 22.6715 38.0105Z" fill="url(#paint0_linear_561_3326)" fill-opacity="0.7"/>
<defs>
<linearGradient id="paint0_linear_561_3326" x1="67" y1="19.5" x2="0" y2="19.5" gradientUnits="userSpaceOnUse">
<stop stop-color="#D6E2BC"/>
<stop offset="0.5" stop-color="#BDDA7E"/>
<stop offset="1" stop-color="#A6BD6F"/>
</linearGradient>
</defs>
</svg>
