<svg width="175" height="181" viewBox="0 0 175 181" fill="none" xmlns="http://www.w3.org/2000/svg">
<ellipse cx="20" cy="18" rx="20" ry="18" transform="matrix(-0.749489 -0.662017 -0.662017 0.749489 179.475 84.3203)" fill="#D9D9D9"/>
<ellipse cx="20" cy="18" rx="20" ry="18" transform="matrix(-0.749489 -0.662017 -0.662017 0.749489 117.021 162.579)" fill="#D9D9D9"/>
<ellipse cx="17" cy="15.5" rx="17" ry="15.5" transform="matrix(-0.749489 -0.662017 -0.662017 0.749489 89.439 106.194)" fill="#D9D9D9"/>
<ellipse cx="17" cy="15.5" rx="17" ry="15.5" transform="matrix(-0.749489 -0.662017 -0.662017 0.749489 82.8667 23.0034)" fill="#D9D9D9"/>
<ellipse cx="11" cy="9.5" rx="11" ry="9.5" transform="matrix(-0.749489 -0.662017 -0.662017 0.749489 140.066 122.894)" fill="#D9D9D9"/>
<circle cx="6.5" cy="6.5" r="6.5" transform="matrix(-0.749489 -0.662017 -0.662017 0.749489 109.113 103.559)" fill="#D9D9D9"/>
<circle cx="6.5" cy="6.5" r="6.5" transform="matrix(-0.749489 -0.662017 -0.662017 0.749489 42.4834 68.7222)" fill="#D9D9D9"/>
<ellipse cx="11" cy="9.5" rx="11" ry="9.5" transform="matrix(-0.749489 -0.662017 -0.662017 0.749489 109.174 70.2568)" fill="#D9D9D9"/>
<ellipse cx="11" cy="9.5" rx="11" ry="9.5" transform="matrix(-0.749489 -0.662017 -0.662017 0.749489 29.5791 31.9731)" fill="#D9D9D9"/>
<ellipse cx="4.5" cy="4" rx="4.5" ry="4" transform="matrix(-0.749489 -0.662017 -0.662017 0.749489 55.0142 145.168)" fill="#D9D9D9"/>
<ellipse cx="2.5" cy="2" rx="2.5" ry="2" transform="matrix(-0.749489 -0.662017 -0.662017 0.749489 32.5913 92.0059)" fill="#D9D9D9"/>
<ellipse cx="4.5" cy="4" rx="4.5" ry="4" transform="matrix(-0.749489 -0.662017 -0.662017 0.749489 113.646 39.5156)" fill="#D9D9D9"/>
</svg>
