<svg width="174" height="136" viewBox="0 0 174 136" fill="none" xmlns="http://www.w3.org/2000/svg">
<ellipse cx="25" cy="18" rx="20" ry="18" fill="#D9D9D9"/>
<ellipse cx="20" cy="118" rx="20" ry="18" fill="#D9D9D9"/>
<path d="M92 91.5C92 100.06 84.3888 107 75 107C65.6112 107 58 100.06 58 91.5C58 82.9396 65.6112 76 75 76C84.3888 76 92 82.9396 92 91.5Z" fill="#D9D9D9" fill-opacity="0.7"/>
<ellipse cx="135" cy="33.5" rx="17" ry="15.5" fill="#D9D9D9" fill-opacity="0.5"/>
<ellipse cx="20" cy="64.5" rx="11" ry="9.5" fill="#999999" fill-opacity="0.2"/>
<circle cx="51.5" cy="67.5" r="6.5" fill="#D9D9D9"/>
<g filter="url(#filter0_f_220_1153)">
<circle cx="124.5" cy="85.5" r="6.5" fill="#B0ACAC" fill-opacity="0.5"/>
</g>
<ellipse cx="78" cy="45.5" rx="11" ry="9.5" fill="#D9D9D9"/>
<ellipse cx="163" cy="69.5" rx="11" ry="9.5" fill="#D9D9D9"/>
<ellipse cx="62.5" cy="132" rx="4.5" ry="4" fill="#D9D9D9"/>
<ellipse cx="112.5" cy="105" rx="2.5" ry="2" fill="#D9D9D9"/>
<ellipse cx="88.5" cy="14" rx="4.5" ry="4" fill="#D9D9D9"/>
<defs>
<filter id="filter0_f_220_1153" x="116" y="77" width="17" height="17" filterUnits="userSpaceOnUse" color-interpolation-filters="sRGB">
<feFlood flood-opacity="0" result="BackgroundImageFix"/>
<feBlend mode="normal" in="SourceGraphic" in2="BackgroundImageFix" result="shape"/>
<feGaussianBlur stdDeviation="1" result="effect1_foregroundBlur_220_1153"/>
</filter>
</defs>
</svg>
